# xmcd
#
# Track frame offsets: 
#        150
#        109843
#        206090
#
# Disc length: 3494 seconds
#
# Revision: 0
# Processed by: cddbd v1.5.2PL0 Copyright (c) Steve Scherf et al.
# Submitted via: ExactAudioCopy v0.95a5
#
DISCID=250da403
DTITLE=Various Artist - 九华之韵
DYEAR=2007
DGENRE=A Cappella
TTITLE0=地藏菩萨灭定业真言(梵唱版)
TTITLE1=地藏菩萨灭定业真言(男女众唱)
TTITLE2=地藏菩萨灭定业真言(二胡演奏版)
EXTD=
EXTT0=
EXTT1=
EXTT2=
PLAYORDER=
